<?xml version="1.0" encoding="utf-8"?>
<svg id="master-artboard" viewBox="0 0 800 360" version="1.1" xmlns="http://www.w3.org/2000/svg" x="0px" y="0px" style="enable-background:new 0 0 336 235.2;" width="800px" height="360px"><rect id="ee-background" x="0" y="0" width="800" height="360" style="fill: white; fill-opacity: 0; pointer-events: none;"/><defs><style id="ee-google-fonts">@import url(https://fonts.googleapis.com/css?family=Arbutus+Slab:400);</style><path id="text-path-0" d="M 49.33189010620117 244.40414428710938 A 100 -6 0 0 0 719.301025390625 244.40414428710938 A 100 -6 0 0 0 49.33189010620117 244.40414428710938" style="fill: none; stroke: red; stroke-width: 2;"/><path id="text-path-1" d="M 90.44422149658203 740.4566650390625 A 100 14 0 0 1 314.443359375 740.4566650390625 A 100 14 0 0 1 90.44422149658203 740.4566650390625 Z" style="fill: none; stroke: red; stroke-width: 2;"/></defs><path d="M 116.7759780883789 165.49154663085938 C 114.77432250976562 162.06382751464844 109.9104232788086 159.92230224609375 102.18428802490234 159.06698608398438 C 94.46478271484375 158.21240234375 88.84498596191406 160.20278930664062 85.32489776611328 165.03814697265625 C 84.1351089477539 166.6973114013672 83.39754486083984 168.81568908691406 83.11219024658203 171.39328002929688 C 82.58550262451172 176.15087890625 84.23424530029297 180.73680114746094 88.05842590332031 185.15106201171875 C 90.57081604003906 188.08531188964844 94.15557098388672 191.20872497558594 98.81269073486328 194.52127075195312 C 103.46318817138672 197.8330841064453 107.36775207519531 200.7638397216797 110.52638244628906 203.3135528564453 C 122.4450454711914 212.88980102539062 127.8677978515625 222.5249786376953 126.79460906982422 232.21910095214844 C 125.84172821044922 240.82650756835938 121.9463882446289 247.11273193359375 115.10858154296875 251.0777587890625 C 108.27078247070312 255.04278564453125 99.83586120605469 256.4700012207031 89.8038101196289 255.3594207763672 C 79.77176666259766 254.2488250732422 71.95352935791016 251.37779235839844 66.34911346435547 246.746337890625 C 60.73880386352539 242.10751342773438 58.217899322509766 237.220458984375 58.786399841308594 232.0851593017578 C 59.35563659667969 226.94325256347656 61.80149459838867 223.692626953125 66.12397003173828 222.3333282470703 C 67.45486450195312 221.88369750976562 68.86906433105469 221.7417755126953 70.36658477783203 221.90756225585938 C 73.22246551513672 222.22372436523438 75.46287536621094 223.43426513671875 77.08779907226562 225.53916931152344 C 78.70536041259766 227.64996337890625 79.35386657714844 230.1531982421875 79.0333023071289 233.048828125 C 78.71200561523438 235.95111083984375 77.12677764892578 238.2741241455078 74.27760314941406 240.0178680419922 C 77.41838073730469 243.94061279296875 83.0771255493164 246.35458374023438 91.25383758544922 247.25978088378906 C 99.43055725097656 248.16497802734375 105.34220123291016 246.02244567871094 108.98877716064453 240.83216857910156 C 110.28599548339844 239.05076599121094 111.07508087158203 236.89114379882812 111.35603332519531 234.3533172607422 C 111.84237670898438 229.96014404296875 110.02735900878906 225.63417053222656 105.91096496582031 221.3753662109375 C 103.77433013916016 219.1668701171875 100.0814208984375 216.20252990722656 94.83221435546875 212.4823455810547 C 89.5763931274414 208.76144409179688 85.45716094970703 205.6794891357422 82.47453308105469 203.23646545410156 C 71.49552917480469 194.32095336914062 66.57783508300781 184.6980743408203 67.721435546875 174.36785888671875 C 68.61416625976562 166.3037872314453 72.3810806274414 160.11737060546875 79.02217864990234 155.80860900878906 C 85.6698989868164 151.50057983398438 93.48963165283203 149.8442840576172 102.48136138916016 150.83970642089844 C 111.47309875488281 151.8351287841797 118.64157104492188 154.5772247314453 123.9867935180664 159.0659637451172 C 129.33863830566406 163.555419921875 131.7086639404297 168.5632781982422 131.0968780517578 174.0895233154297 C 130.76531982421875 177.08456420898438 129.5703125 179.4876708984375 127.51185607910156 181.298828125 C 125.45339965820312 183.11000061035156 123.01942443847656 183.8600616455078 120.20992279052734 183.54904174804688 C 115.9095230102539 183.07296752929688 113.12907409667969 180.86361694335938 111.86857604980469 176.9209747314453 C 111.4970474243164 175.73287963867188 111.38170623779297 174.50271606445312 111.52254486083984 173.23049926757812 C 111.90839385986328 169.7451171875 113.65953826904297 167.1654815673828 116.7759780883789 165.49154663085938 ZM 137.9946746826172 223.2046356201172 C 138.26812744140625 217.74481201171875 139.3761749267578 212.747314453125 141.31878662109375 208.21214294433594 C 143.2547607421875 203.6766357421875 145.8238525390625 199.9604949951172 149.02610778808594 197.063720703125 C 155.33270263671875 191.35870361328125 163.46975708007812 188.7558135986328 173.43727111816406 189.25502014160156 C 183.49798583984375 189.7589111328125 191.4602508544922 193.1781463623047 197.32406616210938 199.51272583007812 C 203.19419860839844 205.8542938232422 205.8516387939453 214.56813049316406 205.29640197753906 225.65423583984375 C 204.74148559570312 236.7336883544922 201.44554138183594 245.56654357910156 195.4085235595703 252.15280151367188 C 189.37783813476562 258.7460632324219 180.8527374267578 261.7667236328125 169.8332061767578 261.2148132324219 C 158.82034301757812 260.66326904296875 150.62457275390625 256.9085998535156 145.24586486816406 249.95082092285156 C 139.86683654785156 242.99972534179688 137.4497833251953 234.08432006835938 137.9946746826172 223.2046356201172 M 170.24388122558594 253.01510620117188 C 175.52392578125 253.27955627441406 179.93594360351562 251.08416748046875 183.4799041748047 246.42893981933594 C 187.02420043945312 241.76707458496094 189.01512145996094 235.06826782226562 189.45263671875 226.33255004882812 C 190.1572723388672 212.26351928710938 187.0450897216797 203.29995727539062 180.11605834960938 199.44186401367188 C 177.98683166503906 198.24050903320312 175.62384033203125 197.57481384277344 173.02708435058594 197.44476318359375 C 164.61097717285156 197.0232391357422 158.87255859375 201.84556579589844 155.81187438964844 211.9117431640625 C 154.72393798828125 215.37498474121094 154.06259155273438 219.45033264160156 153.82781982421875 224.13780212402344 C 153.3766326904297 233.14649963378906 154.68141174316406 240.14720153808594 157.74217224121094 245.139892578125 C 160.79660034179688 250.12557983398438 164.96383666992188 252.7506561279297 170.24388122558594 253.01510620117188 ZM 263.1663818359375 205.11920166015625 C 260.6147766113281 201.86131286621094 256.9698791503906 200.16737365722656 252.23165893554688 200.037353515625 C 243.34832763671875 199.7935791015625 237.42514038085938 204.6896209716797 234.46206665039062 214.72544860839844 C 233.45143127441406 218.25904846191406 232.87799072265625 222.5082550048828 232.74176025390625 227.47305297851562 C 232.4881134033203 236.71624755859375 234.0729217529297 243.73236083984375 237.49618530273438 248.52139282226562 C 240.91925048828125 253.3170928955078 245.29644775390625 255.7880859375 250.62777709960938 255.93438720703125 C 254.5463104248047 256.0419006347656 257.9029846191406 254.99359130859375 260.6978454589844 252.7894287109375 C 263.49267578125 250.58526611328125 265.4747314453125 247.37841796875 266.64398193359375 243.16891479492188 L 276.0004577636719 243.4256591796875 C 275.8453674316406 249.0768585205078 273.2127685546875 253.9965057373047 268.1026306152344 258.1845703125 C 262.9989929199219 262.3794860839844 256.1754150390625 264.3597412109375 247.63197326660156 264.12530517578125 C 239.08853149414062 263.8908386230469 231.90774536132812 261.026123046875 226.08961486816406 255.53114318847656 C 219.2436065673828 249.09426879882812 215.98681640625 239.818115234375 216.31927490234375 227.70266723632812 C 216.59046936035156 217.81971740722656 219.7540740966797 209.34664916992188 225.8101043701172 202.283447265625 C 231.85928344726562 195.22671508789062 240.55506896972656 191.85397338867188 251.89747619628906 192.16522216796875 C 259.32135009765625 192.36892700195312 265.4696350097656 194.3383331298828 270.34234619140625 198.07339477539062 C 275.2084045410156 201.8082733154297 277.5633239746094 206.5213165283203 277.40716552734375 212.21249389648438 C 277.3309020996094 214.991455078125 276.3671569824219 217.30255126953125 274.5158996582031 219.1457977294922 C 272.6646423339844 220.98904418945312 270.3495178222656 221.87254333496094 267.5705871582031 221.79627990722656 C 263.60540771484375 221.68746948242188 260.92041015625 219.7664337158203 259.515625 216.03317260742188 C 259.09246826171875 214.9278106689453 258.89898681640625 213.7153778076172 258.9351806640625 212.3958740234375 C 259.021484375 209.25039672851562 260.431884765625 206.82484436035156 263.1663818359375 205.11920166015625 ZM 305.1271057128906 180.5945281982422 C 302.1607666015625 180.55030822753906 299.6557922363281 179.52284240722656 297.6122131347656 177.51214599609375 C 295.5687255859375 175.4947967529297 294.568359375 173.05294799804688 294.6111145019531 170.1865997314453 C 294.6546325683594 167.2669219970703 295.74139404296875 164.8095245361328 297.8713684082031 162.81439208984375 C 299.99468994140625 160.81915283203125 302.51617431640625 159.8433074951172 305.43585205078125 159.8868408203125 C 308.348876953125 159.93026733398438 310.84014892578125 160.98086547851562 312.9096984863281 163.0386199951172 C 314.97259521484375 165.0962677001953 315.9822692871094 167.58493041992188 315.938720703125 170.5045928955078 C 315.89599609375 173.37095642089844 314.8232727050781 175.78189086914062 312.7205505371094 177.7374267578125 C 310.617919921875 179.68629455566406 308.0867614746094 180.63865661621094 305.1271057128906 180.5945281982422 M 286.5688171386719 256.1362609863281 C 290.8016662597656 256.1993713378906 293.4606628417969 255.83897399902344 294.5458068847656 255.0550537109375 C 295.630859375 254.27781677246094 296.29351806640625 253.43426513671875 296.53375244140625 252.5244140625 C 296.7740173339844 251.61456298828125 296.9043273925781 250.47637939453125 296.9247131347656 249.10986328125 L 297.4861755371094 211.4540557861328 C 297.5351867675781 208.16773986816406 297.2804870605469 206.02037048339844 296.7221374511719 205.01194763183594 C 296.1704406738281 204.00360107421875 294.6413879394531 203.48074340820312 292.135009765625 203.44337463378906 L 287.2155456542969 203.37002563476562 L 287.3276672363281 195.85086059570312 C 291.7938537597656 195.91746520996094 295.3083801269531 195.6398162841797 297.87127685546875 195.01795959472656 C 300.427490234375 194.39601135253906 302.23443603515625 193.94288635253906 303.2921447753906 193.65863037109375 C 304.3430480957031 193.3809356689453 305.4817810058594 193.25123596191406 306.70831298828125 193.26951599121094 C 309.0813903808594 193.30490112304688 310.63421630859375 194.02146911621094 311.3667907714844 195.41920471191406 C 312.0992431640625 196.82362365722656 312.4427185058594 199.0523223876953 312.397216796875 202.10531616210938 L 311.6930847167969 249.33006286621094 C 311.6502380371094 252.2030792236328 312.0766906738281 254.0096435546875 312.972412109375 254.74974060058594 C 314.50787353515625 255.9594268798828 317.438720703125 256.5965270996094 321.764892578125 256.6610412597656 L 321.6528015136719 264.1802062988281 L 286.4566955566406 263.6554260253906 L 286.5688171386719 256.1362609863281 ZM 391.88885498046875 248.21627807617188 C 391.87139892578125 253.64291381835938 392.9360046386719 256.35968017578125 395.0826721191406 256.3665771484375 C 397.12933349609375 256.3731689453125 398.6348876953125 255.6813201904297 399.599365234375 254.29107666015625 C 400.5571594238281 252.90748596191406 401.0419006347656 250.39236450195312 401.0536193847656 246.74571228027344 L 408.23358154296875 246.76878356933594 C 408.2783508300781 247.36227416992188 408.2986755371094 248.29566955566406 408.2945861816406 249.56900024414062 C 408.2814025878906 253.66897583007812 407.2433166503906 257.218994140625 405.1803283691406 260.21905517578125 C 402.661376953125 264.0443115234375 398.6685791015625 265.9481506347656 393.2019348144531 265.9305725097656 C 389.64862060546875 265.9191589355469 386.6218566894531 264.9060974121094 384.12164306640625 262.8913879394531 C 381.6214294433594 260.8766784667969 379.8966064453125 258.227783203125 378.9471435546875 254.94471740722656 C 372.31707763671875 262.216796875 363.9454040527344 265.8365783691406 353.8321228027344 265.8040771484375 C 348.27215576171875 265.78619384765625 343.43408203125 264.1406555175781 339.31793212890625 260.8674011230469 C 335.2017517089844 257.5941467285156 333.1530456542969 253.04087829589844 333.1717834472656 247.20758056640625 C 333.20428466796875 237.09429931640625 340.70159912109375 229.64501953125 355.6637268066406 224.8597412109375 C 365.1533203125 221.88356018066406 370.836669921875 219.8184814453125 372.7137145996094 218.66448974609375 C 374.5841064453125 217.50384521484375 375.8045959472656 216.3210906982422 376.3751220703125 215.11624145507812 C 376.95233154296875 213.9114227294922 377.2433776855469 212.55569458007812 377.2481994628906 211.0490264892578 C 377.2568359375 208.3623809814453 375.94073486328125 206.11480712890625 373.29986572265625 204.30630493164062 C 370.6656494140625 202.49783325195312 367.22857666015625 201.5867919921875 362.98858642578125 201.5731658935547 C 358.74859619140625 201.55953979492188 355.00830078125 202.68751525878906 351.7676696777344 204.9571075439453 C 354.042236328125 206.65110778808594 355.1752624511719 208.81808471679688 355.1667785644531 211.45806884765625 C 355.15826416015625 214.10472106933594 354.2748107910156 216.22189331054688 352.516357421875 217.80958557128906 C 350.7512512207031 219.3972625732422 348.6286926269531 220.18710327148438 346.1487121582031 220.17913818359375 C 343.66204833984375 220.171142578125 341.6144714355469 219.41456604003906 340.0059814453125 217.90939331054688 C 338.39080810546875 216.39752197265625 337.5875549316406 214.2982635498047 337.59619140625 211.61160278320312 C 337.61334228515625 206.27830505371094 340.31719970703125 201.9669647216797 345.7077941894531 198.6776123046875 C 351.0917053222656 195.3948974609375 357.6336364746094 193.7659149169922 365.3336181640625 193.7906494140625 C 379.1001892089844 193.83489990234375 387.4958190917969 198.32522583007812 390.52044677734375 207.26165771484375 C 391.5108947753906 210.2315216064453 391.9999084472656 213.6531219482422 391.9874572753906 217.52642822265625 L 391.88885498046875 248.21627807617188 M 361.8036804199219 231.09950256347656 C 357.7848205566406 232.81993103027344 354.7676696777344 235.03358459472656 352.7523193359375 237.74044799804688 C 350.7436218261719 240.440673828125 349.734130859375 243.387451171875 349.723876953125 246.5807647705078 C 349.7136535644531 249.7674102783203 350.5692138671875 252.18350219726562 352.29058837890625 253.8290557861328 C 354.0186462402344 255.4812774658203 356.1826477050781 256.31158447265625 358.7826232910156 256.3199157714844 C 364.06927490234375 256.3369140625 368.44854736328125 254.49098205566406 371.9205017089844 250.78211975097656 C 375.3990783691406 247.07994079589844 377.1490478515625 241.90220642089844 377.1704406738281 235.2489013671875 L 377.20428466796875 224.71896362304688 C 374.2794494628906 226.2162322998047 371.18505859375 227.5762939453125 367.9211120605469 228.7991485595703 C 364.6638488769531 230.01535034179688 362.6247253417969 230.78213500976562 361.8036804199219 231.09950256347656 ZM 410.3555603027344 256.95050048828125 C 414.3154296875 256.91925048828125 417.0310363769531 256.3511657714844 418.50238037109375 255.24620056152344 C 419.9803771972656 254.14117431640625 420.7087707519531 252.24537658691406 420.6875915527344 249.5587921142578 L 420.103759765625 175.52108764648438 C 420.0779113769531 172.24119567871094 419.77435302734375 170.103515625 419.19317626953125 169.1080780029297 C 418.61859130859375 168.10589599609375 417.0546569824219 167.61488342285156 414.50140380859375 167.63502502441406 L 408.9615783691406 167.67869567871094 L 408.90228271484375 160.158935546875 C 413.5088195800781 160.12261962890625 417.1060791015625 159.7642364501953 419.69415283203125 159.0838165283203 C 422.2888488769531 158.4033203125 424.1416931152344 157.9120330810547 425.252685546875 157.6099395751953 C 426.37030029296875 157.30111694335938 427.5423889160156 157.14186096191406 428.76904296875 157.13218688964844 C 431.1423034667969 157.1134796142578 432.7342834472656 157.78427124023438 433.5450439453125 159.14459228515625 C 434.34912109375 160.5049591064453 434.7633972167969 162.73509216308594 434.787841796875 165.83499145507812 L 435.4471435546875 249.44239807128906 C 435.4693603515625 252.26231384277344 436.0878601074219 254.1808319091797 437.3025817871094 255.1979522705078 C 438.5173034667969 256.2150573730469 441.3379211425781 256.7061767578125 445.76446533203125 256.6712646484375 L 445.8237609863281 264.1910400390625 L 410.41485595703125 264.4702453613281 L 410.3555603027344 256.95050048828125 ZM 455.4164733886719 256.67510986328125 C 460.248779296875 256.5747375488281 463.2494201660156 256.0923156738281 464.4183654785156 255.22784423828125 C 465.5805358886719 254.3568572998047 466.2650146484375 253.44244384765625 466.4718322753906 252.48460388183594 C 466.6851806640625 251.5199737548828 466.7776794433594 250.35446166992188 466.7492980957031 248.98809814453125 L 465.2416076660156 176.40374755859375 C 465.1828918457031 173.57769775390625 464.29931640625 171.6489715576172 462.59088134765625 170.6175537109375 C 460.88226318359375 169.57948303222656 457.8851013183594 169.10494995117188 453.599365234375 169.1939697265625 L 453.4432067871094 161.67559814453125 L 526.4374389648438 160.15939331054688 L 529.622314453125 184.9185791015625 L 519.7056884765625 185.18458557128906 L 517.7057495117188 177.50445556640625 C 516.7159423828125 173.8308868408203 515.7345581054688 171.52743530273438 514.7616577148438 170.5941162109375 C 513.040283203125 168.94284057617188 510.17340087890625 168.15887451171875 506.16094970703125 168.24221801757812 L 480.46649169921875 168.77593994140625 L 481.2926025390625 208.54734802246094 L 493.869873046875 208.28610229492188 C 499.01544189453125 208.17921447753906 502.1610412597656 207.7738037109375 503.3066711425781 207.0698699951172 C 504.45880126953125 206.35911560058594 505.23828125 205.3627166748047 505.64508056640625 204.08065795898438 C 506.0517578125 202.79193115234375 506.2300109863281 200.941162109375 506.1799011230469 198.52835083007812 L 515.0579833984375 198.3439483642578 L 515.6074829101562 224.79823303222656 L 506.7294006347656 224.98265075683594 C 506.6413269042969 220.74356079101562 505.7535095214844 218.1280975341797 504.0658874511719 217.13626098632812 C 502.37823486328125 216.14443969726562 499.0316467285156 215.70050048828125 494.02606201171875 215.80447387695312 L 481.4487609863281 216.0657196044922 L 482.0549621582031 245.2494354248047 C 482.103271484375 247.57559204101562 482.31207275390625 249.44166564941406 482.68133544921875 250.84762573242188 C 483.0506286621094 252.25360107421875 484.2159118652344 253.45965576171875 486.17724609375 254.4658203125 C 488.13189697265625 255.47210693359375 493.9848327636719 255.8739776611328 503.7360534667969 255.6714324951172 L 503.8922424316406 263.1898193359375 L 455.5726623535156 264.1934814453125 L 455.4164733886719 256.67510986328125 ZM 557.1793212890625 178.23464965820312 C 554.2146606445312 178.3441162109375 551.6598510742188 177.44778442382812 549.5148315429688 175.545654296875 C 547.36962890625 173.63685607910156 546.2440795898438 171.25009155273438 546.1383056640625 168.3853759765625 C 546.0305786132812 165.4673614501953 546.9885864257812 162.95697021484375 549.0123291015625 160.85418701171875 C 551.0294799804688 158.75164794921875 553.4970703125 157.64649963378906 556.4150390625 157.53875732421875 C 559.326416015625 157.43124389648438 561.8687744140625 158.35137939453125 564.0421142578125 160.29917907714844 C 566.2088012695312 162.24720764160156 567.3460083007812 164.68023681640625 567.4537963867188 167.59823608398438 C 567.5595703125 170.46295166015625 566.6131591796875 172.9262237548828 564.6145629882812 174.98805236816406 C 562.61572265625 177.043212890625 560.1372680664062 178.1254119873047 557.1793212890625 178.23464965820312 M 542.5587768554688 254.63621520996094 C 546.7892456054688 254.47999572753906 549.4259643554688 253.98236083984375 550.4690551757812 253.14329528808594 C 551.5123901367188 252.31089782714844 552.1304321289062 251.4341583251953 552.3232421875 250.51307678222656 C 552.5160522460938 249.5919952392578 552.5872802734375 248.44859313964844 552.5368041992188 247.08285522460938 L 551.1470947265625 209.44851684570312 C 551.0257568359375 206.16407775878906 550.6602172851562 204.0327911376953 550.0503540039062 203.05462646484375 C 549.4472045898438 202.0762176513672 547.8931274414062 201.63327026367188 545.38818359375 201.72576904296875 L 540.4714965820312 201.90733337402344 L 540.1940307617188 194.3924560546875 C 544.6576538085938 194.22763061523438 548.153076171875 193.76832580566406 550.6802978515625 193.01454162597656 C 553.2008666992188 192.26101684570312 554.98193359375 191.7149200439453 556.0234985351562 191.37625122070312 C 557.05859375 191.04449462890625 558.1890869140625 190.85597229003906 559.4149169921875 190.8107147216797 C 561.78662109375 190.72312927246094 563.37451171875 191.35830688476562 564.178466796875 192.71621704101562 C 564.9827270507812 194.080810546875 565.441162109375 196.28872680664062 565.5538330078125 199.33998107910156 L 567.2967529296875 246.53781127929688 C 567.40283203125 249.4091796875 567.9222412109375 251.19122314453125 568.8551025390625 251.88394165039062 C 570.451171875 253.01248168945312 573.4110717773438 253.49691772460938 577.7348022460938 253.33724975585938 L 578.0123291015625 260.85211181640625 L 542.8363037109375 262.1510925292969 L 542.5587768554688 254.63621520996094 ZM 587.8729858398438 252.96878051757812 C 591.7801513671875 252.74960327148438 594.2138671875 252.21246337890625 595.1741943359375 251.3573455810547 C 596.128173828125 250.50924682617188 596.6827392578125 249.6234588623047 596.8379516601562 248.69998168945312 C 596.9931640625 247.77650451660156 597.032470703125 246.63250732421875 596.9559326171875 245.2679901123047 L 594.8467407226562 207.66709899902344 C 594.6626586914062 204.38558959960938 594.2564086914062 202.2616729736328 593.6279907226562 201.2953643798828 C 593.0062255859375 200.3286590576172 591.4439697265625 199.91551208496094 588.9412231445312 200.05589294433594 L 584.7777709960938 200.28944396972656 L 584.3565673828125 192.78125 C 588.6764526367188 192.53892517089844 592.0126953125 192.02127075195312 594.3652954101562 191.22825622558594 C 596.7179565429688 190.4352569580078 598.3983764648438 189.86024475097656 599.4066162109375 189.5032196044922 C 600.4152221679688 189.15284729003906 601.5086669921875 188.94461059570312 602.686767578125 188.87852478027344 C 605.0098266601562 188.7482147216797 606.6089477539062 189.34292602539062 607.4842529296875 190.6626434326172 C 608.3528442382812 191.98272705078125 608.8739624023438 194.19033813476562 609.047607421875 197.2854766845703 L 609.123779296875 198.64334106445312 C 612.7799682617188 193.83102416992188 617.0429077148438 190.4903564453125 621.9125366210938 188.62136840820312 C 623.6591796875 187.97586059570312 625.4210205078125 187.603271484375 627.1982421875 187.5035858154297 C 630.6062622070312 187.31240844726562 633.310302734375 188.14227294921875 635.3104248046875 189.9931640625 C 637.310546875 191.84405517578125 638.390869140625 194.20057678222656 638.5514526367188 197.062744140625 C 638.7123413085938 199.9315643310547 637.931884765625 202.32569885253906 636.2100219726562 204.24514770507812 C 634.4951782226562 206.17088317871094 632.3397827148438 207.20654296875 629.743896484375 207.35215759277344 C 627.194580078125 207.4951629638672 625.0400390625 206.7012481689453 623.2803344726562 204.97042846679688 C 621.5143432617188 203.2466278076172 620.6480102539062 201.0149688720703 620.6813354492188 198.27548217773438 C 618.8262329101562 198.65330505371094 616.8804931640625 199.6171112060547 614.8441162109375 201.16693115234375 C 612.8143310546875 202.71636962890625 611.06982421875 204.76730346679688 609.6104736328125 207.3197021484375 L 611.6586303710938 243.83230590820312 C 611.7556762695312 245.5629119873047 611.9825439453125 246.92901611328125 612.3391723632812 247.9306182861328 C 612.6895751953125 248.93923950195312 613.5335083007812 249.7599334716797 614.8710327148438 250.39268493652344 C 616.2086181640625 251.0254364013672 620.12890625 251.159423828125 626.6320190429688 250.7946319580078 L 627.05322265625 258.3028259277344 L 588.2941284179688 260.47698974609375 L 587.8729858398438 252.96878051757812 ZM 709.268798828125 218.78224182128906 L 662.1370849609375 224.18153381347656 C 663.0286254882812 231.96397399902344 665.5629272460938 237.77328491210938 669.739990234375 241.60946655273438 C 673.9170532226562 245.44564819335938 678.7244873046875 247.05227661132812 684.1622924804688 246.42933654785156 C 691.4479370117188 245.59471130371094 696.3318481445312 241.9820556640625 698.81396484375 235.5913543701172 L 708.9210205078125 234.37313842773438 C 708.435791015625 239.33392333984375 705.9278564453125 243.7715301513672 701.3972778320312 247.68592834472656 C 696.873291015625 251.59959411621094 690.4452514648438 254.03367614746094 682.1130981445312 254.98817443847656 C 673.7808837890625 255.94268798828125 666.285400390625 254.18435668945312 659.6265869140625 249.71316528320312 C 651.6704711914062 244.34378051757812 647.0466918945312 236.0226287841797 645.7553100585938 224.74969482421875 C 644.4638671875 213.4767608642578 646.310302734375 204.05538940429688 651.29443359375 196.48561096191406 C 656.2727661132812 188.92320251464844 664.1500244140625 184.52474975585938 674.9262084960938 183.29026794433594 C 689.1001586914062 181.66651916503906 698.9234619140625 186.3187255859375 704.3961181640625 197.24688720703125 C 706.5961303710938 201.63165283203125 707.929443359375 205.8607177734375 708.3961181640625 209.93406677246094 C 708.8627319335938 214.00743103027344 709.1536254882812 216.95681762695312 709.268798828125 218.78224182128906 M 692.4136962890625 210.38601684570312 C 690.8263549804688 196.52996826171875 685.3235473632812 190.1414337158203 675.9050903320312 191.2203826904297 C 670.6064453125 191.82737731933594 666.713134765625 194.36363220214844 664.2252197265625 198.8291473388672 C 661.7298583984375 203.28878784179688 660.7637939453125 209.177001953125 661.3268432617188 216.49378967285156 L 692.632080078125 212.9075469970703 C 692.579833984375 212.04119873046875 692.5070190429688 211.20068359375 692.4136962890625 210.38601684570312 Z" transform="matrix(1, 0, 0, 1, -1.3980262279510498, -33.55263137817383)" style="fill: rgb(0, 0, 0); white-space: pre; color: rgb(51, 51, 51);"/></svg>