<?xml version="1.0" encoding="utf-8"?>
<svg id="master-artboard" viewBox="0 0 800 360" version="1.1" xmlns="http://www.w3.org/2000/svg" x="0px" y="0px" style="enable-background:new 0 0 336 235.2;" width="800px" height="360px"><rect id="ee-background" x="0" y="0" width="800" height="360" style="fill: white; fill-opacity: 0; pointer-events: none;"/><defs><style id="ee-google-fonts">@import url(https://fonts.googleapis.com/css?family=Cookie:400);</style><path id="text-path-0" d="M 49.33189010620117 244.40414428710938 A 100 -6 0 0 0 719.301025390625 244.40414428710938 A 100 -6 0 0 0 49.33189010620117 244.40414428710938" style="fill: none; stroke: red; stroke-width: 2;"/><path id="text-path-1" d="M 90.44422149658203 740.4566650390625 A 100 14 0 0 1 314.443359375 740.4566650390625 A 100 14 0 0 1 90.44422149658203 740.4566650390625 Z" style="fill: none; stroke: red; stroke-width: 2;"/></defs><path d="M 225.7517547607422 197.840087890625 L 226.58416748046875 194.22805786132812 C 226.39508056640625 189.17779541015625 223.0826873779297 186.5351104736328 216.64697265625 186.3000030517578 C 212.91612243652344 186.16371154785156 209.62640380859375 187.37442016601562 206.77780151367188 189.93212890625 C 203.92918395996094 192.48983764648438 202.4512176513672 195.2377166748047 202.34388732910156 198.17575073242188 C 202.23655700683594 201.11380004882812 203.3787078857422 203.72389221191406 205.7703094482422 206.0060577392578 C 208.16192626953125 208.28822326660156 211.07504272460938 210.35595703125 214.50967407226562 212.20924377441406 C 217.94430541992188 214.0625457763672 221.3738250732422 216.0557403564453 224.79823303222656 218.1888427734375 C 228.22265625 220.3219451904297 231.11277770996094 223.0192413330078 233.46861267089844 226.28076171875 C 235.82444763183594 229.5422821044922 236.92910766601562 233.17835998535156 236.7825927734375 237.1890106201172 C 236.47933959960938 245.49014282226562 232.97633361816406 251.89987182617188 226.27357482910156 256.4181823730469 C 219.57083129882812 260.9364929199219 212.4419708251953 263.0576477050781 204.8870086669922 262.78167724609375 C 197.33204650878906 262.50567626953125 191.0865020751953 260.8999328613281 186.150390625 257.96441650390625 C 181.21426391601562 255.0289306640625 178.84841918945312 250.7630615234375 179.0528564453125 245.1667938232422 C 179.16189575195312 242.18211364746094 180.28668212890625 239.51473999023438 182.42724609375 237.16464233398438 C 184.5677947998047 234.81455993652344 187.55014038085938 233.70936584472656 191.37425231933594 233.84906005859375 C 192.86659240722656 233.90357971191406 194.2036895751953 234.37271118164062 195.3855438232422 235.25643920898438 C 196.56739807128906 236.1401824951172 197.27268981933594 237.2866973876953 197.5013885498047 238.69598388671875 C 197.4502716064453 240.0950469970703 196.5852813720703 240.763916015625 194.90640258789062 240.70257568359375 C 191.7351837158203 240.58673095703125 190.1001739501953 241.88124084472656 190.00135803222656 244.5861053466797 C 189.982177734375 247.66744995117188 191.34898376464844 250.51925659179688 194.1017608642578 253.14149475097656 C 196.85452270507812 255.7637481689453 200.81918334960938 257.1694030761719 205.9957275390625 257.3585205078125 C 211.1722869873047 257.5476379394531 215.6674041748047 255.9373321533203 219.4810791015625 252.52761840820312 C 223.29476928710938 249.11790466308594 225.29360961914062 244.8947296142578 225.4776153564453 239.8580780029297 C 225.60028076171875 236.5003204345703 224.4518585205078 233.4230194091797 222.0323486328125 230.62615966796875 C 219.6128387451172 227.8292999267578 216.66586303710938 225.41009521484375 213.19140625 223.36856079101562 C 209.71694946289062 221.3270263671875 206.22003173828125 219.26132202148438 202.70065307617188 217.17144775390625 C 199.1812744140625 215.08155822753906 196.21353149414062 212.59156799316406 193.79742431640625 209.70143127441406 C 191.38133239746094 206.81129455566406 190.23800659179688 203.59408569335938 190.36749267578125 200.04977416992188 C 190.5957794189453 193.8006134033203 193.45962524414062 188.9085693359375 198.95899963378906 185.3736572265625 C 204.45838928222656 181.83872985839844 210.6124725341797 180.1956329345703 217.4212646484375 180.44436645507812 C 221.99154663085938 180.611328125 226.1080322265625 181.69566345214844 229.77073669433594 183.69737243652344 C 233.43344116210938 185.6990966796875 235.2415771484375 188.61370849609375 235.1951446533203 192.4412384033203 C 235.11337280273438 194.6797332763672 234.485595703125 196.52471923828125 233.31182861328125 197.97616577148438 C 232.13804626464844 199.42762756347656 230.5951385498047 200.11842346191406 228.68307495117188 200.04856872558594 C 226.77102661132812 199.9787139892578 225.79391479492188 199.2425537109375 225.7517547607422 197.840087890625 ZM 287.98681640625 233.3060302734375 C 291.7459716796875 232.17529296875 294.3584899902344 231.18264770507812 295.8243713378906 230.3280792236328 C 297.29022216796875 229.47352600097656 298.40155029296875 228.82119750976562 299.1583251953125 228.37110900878906 L 300.8595275878906 227.42837524414062 C 301.3322448730469 227.1587371826172 301.70855712890625 227.02700805664062 301.9884948730469 227.03317260742188 C 302.7349853515625 227.0496368408203 303.0989685058594 227.47776794433594 303.0804443359375 228.31756591796875 C 303.0619201660156 229.1573486328125 301.5832214355469 230.59510803222656 298.644287109375 232.6308135986328 C 295.7053527832031 234.66651916503906 292.07122802734375 236.47683715820312 287.7419128417969 238.06178283691406 C 286.9158935546875 245.88546752929688 284.3032531738281 252.1760711669922 279.9039611816406 256.93359375 C 275.5046691894531 261.6910705566406 269.3393249511719 263.9823913574219 261.4079284667969 263.8074951171875 C 255.6226806640625 263.679931640625 251.24134826660156 261.27276611328125 248.26394653320312 256.5859680175781 C 245.2865447998047 251.89920043945312 243.8662567138672 246.45323181152344 244.00308227539062 240.24807739257812 C 244.13990783691406 234.0429229736328 246.11190795898438 228.2283172607422 249.9190673828125 222.80426025390625 C 253.7262420654297 217.3802032470703 258.5224609375 214.73196411132812 264.3077087402344 214.85952758789062 C 266.9615783691406 213.05093383789062 270.084716796875 212.1862335205078 273.67718505859375 212.2654571533203 C 277.2696533203125 212.34466552734375 280.5633239746094 214.3311004638672 283.5581970214844 218.2247314453125 C 286.5531005859375 222.1183624267578 288.029296875 227.1454620361328 287.98681640625 233.3060302734375 M 278.73162841796875 240.24368286132812 L 273.6866760253906 240.41250610351562 C 269.3943786621094 240.31785583496094 265.7835693359375 238.95458984375 262.85418701171875 236.3227081298828 C 259.9248352050781 233.69081115722656 258.4941101074219 230.8352508544922 258.56201171875 227.75599670410156 C 258.6299133300781 224.67674255371094 259.2017517089844 222.02870178222656 260.2775573730469 219.8118896484375 C 256.19525146484375 222.89598083496094 254.05120849609375 229.10354614257812 253.84544372558594 238.4346160888672 C 253.74668884277344 242.9135284423828 254.58566284179688 247.20306396484375 256.36236572265625 251.30322265625 C 258.1390686035156 255.4033966064453 261.0335998535156 257.4977111816406 265.04595947265625 257.586181640625 C 269.0583190917969 257.6746520996094 272.2217712402344 256.0406799316406 274.5363464355469 252.68421936035156 C 276.85089111328125 249.3277587890625 278.24932861328125 245.180908203125 278.73162841796875 240.24368286132812 M 270.5660705566406 216.81797790527344 C 269.0730895996094 216.78504943847656 267.89178466796875 217.4358367919922 267.02215576171875 218.77032470703125 C 266.15252685546875 220.1048126220703 265.7002258300781 221.565185546875 265.6652526855469 223.15147399902344 C 265.589111328125 226.60397338867188 266.71710205078125 229.4295196533203 269.0491943359375 231.6281280517578 C 271.38128662109375 233.82675170898438 274.1336364746094 234.96102905273438 277.3061828613281 235.03099060058594 L 278.98577880859375 235.06802368164062 C 278.89996337890625 230.49168395996094 278.2217102050781 226.3223876953125 276.9510192871094 222.56011962890625 C 275.6803283691406 218.79786682128906 273.552001953125 216.88381958007812 270.5660705566406 216.81797790527344 ZM 319.5656433105469 230.10440063476562 L 320.7777099609375 222.9794464111328 C 320.79095458984375 221.95286560058594 320.4763488769531 221.01539611816406 319.83392333984375 220.1670379638672 C 319.19146728515625 219.3186798095703 318.3569641113281 218.8878631591797 317.33038330078125 218.87461853027344 C 313.8773498535156 218.83004760742188 310.8575134277344 221.38128662109375 308.2708740234375 226.52833557128906 C 305.6842346191406 231.67538452148438 304.3601989746094 236.6287078857422 304.29876708984375 241.3883056640625 C 304.2373352050781 246.14791870117188 305.1675720214844 250.01023864746094 307.0894470214844 252.9752960205078 C 309.0113525390625 255.94033813476562 311.3955078125 257.44122314453125 314.241943359375 257.47796630859375 C 317.08837890625 257.51470947265625 319.6399230957031 256.8942565917969 321.8966064453125 255.61660766601562 C 324.15325927734375 254.33895874023438 326.23052978515625 252.4989471435547 328.12835693359375 250.09657287597656 C 332.1142883300781 245.01425170898438 335.5492858886719 239.22476196289062 338.433349609375 232.72811889648438 C 339.20166015625 231.05789184570312 339.80059814453125 229.85218811035156 340.2301940917969 229.1110076904297 C 340.6597900390625 228.36981201171875 341.1312255859375 228.00253295898438 341.64453125 228.0091552734375 C 342.1578063964844 228.0157928466797 342.4096374511719 228.39239501953125 342.4000244140625 229.13900756835938 C 342.3602600097656 232.21875 341.23944091796875 235.89125061035156 339.03753662109375 240.15652465820312 C 336.8356628417969 244.4217987060547 334.9966735839844 247.68833923339844 333.5206298828125 249.95614624023438 C 332.0445556640625 252.2239532470703 330.1703796386719 254.60330200195312 327.8980407714844 257.09417724609375 C 323.164306640625 262.26019287109375 317.2977294921875 264.79803466796875 310.2983093261719 264.7076721191406 C 304.978759765625 264.6390380859375 300.9668273925781 262.69708251953125 298.2624816894531 258.8818664550781 C 295.55816650390625 255.066650390625 294.23370361328125 251.01255798339844 294.28912353515625 246.71957397460938 C 294.4264221191406 236.08045959472656 296.8407287597656 228.0142822265625 301.5320129394531 222.5210418701172 C 306.2232971191406 217.0277862548828 312.1153259277344 214.32693481445312 319.20806884765625 214.41847229003906 C 322.1944580078125 214.45701599121094 324.541015625 215.2573699951172 326.2476501464844 216.8195343017578 C 327.9543151855469 218.38168334960938 328.79498291015625 220.14268493652344 328.7696838378906 222.10250854492188 C 328.72271728515625 225.74221801757812 328.0345153808594 228.44021606445312 326.7050476074219 230.19654846191406 C 325.3756103515625 231.95286560058594 323.77764892578125 232.81898498535156 321.9111328125 232.79489135742188 C 320.3245849609375 232.7744140625 319.5427551269531 231.87757873535156 319.5656433105469 230.10440063476562 ZM 339.6534118652344 195.86585998535156 C 339.6650085449219 194.1859130859375 340.5616455078125 192.74539184570312 342.34332275390625 191.54432678222656 C 344.1249694824219 190.34326171875 345.7157897949219 189.74755859375 347.1157531738281 189.75721740722656 C 349.6357116699219 189.7746124267578 350.88568115234375 191.22994995117188 350.86572265625 194.1232147216797 C 350.8457336425781 197.0164794921875 350.0818786621094 199.5079345703125 348.5740661621094 201.59756469726562 C 347.0662841796875 203.6872100830078 344.9590759277344 204.7227020263672 342.2524719238281 204.70401000976562 C 340.47918701171875 204.6917724609375 339.6128234863281 201.7457275390625 339.6534118652344 195.86585998535156 M 343.2359924316406 265.05224609375 C 339.5960693359375 265.0271301269531 336.84796142578125 264.261474609375 334.99163818359375 262.7552795410156 C 334.34283447265625 262.0974426269531 334.03228759765625 259.7619323730469 334.0599670410156 255.74868774414062 C 334.0876770019531 251.73544311523438 334.4372253417969 245.04103088378906 335.1086120605469 235.6654510498047 C 335.7799987792969 226.28985595703125 336.35162353515625 221.2303466796875 336.82342529296875 220.48692321777344 C 337.29522705078125 219.74349975585938 338.75152587890625 218.353515625 341.1922912597656 216.3169708251953 C 343.6330871582031 214.2804412841797 345.5301208496094 213.266845703125 346.8834228515625 213.27618408203125 C 348.2367248535156 213.2855224609375 348.9011535644531 215.0634765625 348.87664794921875 218.6100616455078 C 348.8702087402344 219.5433807373047 348.6009826660156 221.36155700683594 348.0690002441406 224.0646209716797 C 347.5369873046875 226.76768493652344 346.9401550292969 228.72360229492188 346.2784423828125 229.93240356445312 C 345.04388427734375 233.0039520263672 344.38153076171875 241.07290649414062 344.29132080078125 254.13926696777344 C 344.27392578125 256.6592102050781 344.54522705078125 257.9211120605469 345.105224609375 257.9249572753906 C 346.6925048828125 257.84259033203125 348.89947509765625 255.87445068359375 351.72613525390625 252.02052307128906 C 354.55279541015625 248.16661071777344 357.36370849609375 243.2158966064453 360.1588439941406 237.1683807373047 C 362.9539794921875 231.12086486816406 364.6548767089844 228.09918212890625 365.26153564453125 228.10337829589844 C 365.8681945800781 228.10755920410156 366.1689453125 228.4829864501953 366.1637878417969 229.22962951660156 C 366.145751953125 231.8428955078125 364.7637634277344 235.98680114746094 362.01788330078125 241.66131591796875 C 354.5364990234375 257.2900390625 348.27587890625 265.0870361328125 343.2359924316406 265.05224609375 ZM 397.0708923339844 265.203125 C 393.430908203125 265.203125 390.67755126953125 264.45648193359375 388.8108825683594 262.963134765625 C 388.1575622558594 262.309814453125 387.8309020996094 260.65313720703125 387.8309020996094 257.9931335449219 C 387.8309020996094 255.33314514160156 387.9242248535156 251.7631378173828 388.1108703613281 247.28314208984375 C 385.6842041015625 253.3498077392578 383.2808837890625 257.8531494140625 380.90087890625 260.79315185546875 C 378.5209045410156 263.733154296875 375.4642333984375 265.2031555175781 371.73089599609375 265.2031555175781 C 367.99755859375 265.2031555175781 364.73089599609375 263.4531555175781 361.9308776855469 259.9531555175781 C 359.1308898925781 256.45318603515625 357.73089599609375 250.94650268554688 357.7308654785156 243.4331817626953 C 357.7308654785156 235.9198455810547 359.85418701171875 229.26983642578125 364.1008605957031 223.48316955566406 C 368.3475036621094 217.69650268554688 373.9241943359375 214.80316162109375 380.8308410644531 214.8031463623047 C 383.8175048828125 214.8031463623047 387.1775207519531 216.7631378173828 390.9108581542969 220.68313598632812 C 391.65753173828125 219.65647888183594 392.9875183105469 218.41981506347656 394.9008483886719 216.97314453125 C 396.8141784667969 215.52647399902344 398.447509765625 214.80313110351562 399.80084228515625 214.80313110351562 C 401.1541748046875 214.80313110351562 401.8308410644531 216.5764617919922 401.8308410644531 220.1231231689453 C 401.8308410644531 221.05645751953125 401.5741882324219 222.87646484375 401.06085205078125 225.5831298828125 C 400.5475158691406 228.289794921875 399.9642028808594 230.2498016357422 399.31085205078125 231.463134765625 C 398.4708557128906 233.60980224609375 398.0508728027344 241.21646118164062 398.0508728027344 254.28314208984375 C 398.0509033203125 256.8031311035156 398.3309020996094 258.0631408691406 398.8908996582031 258.0631408691406 C 400.4775695800781 257.96978759765625 402.6708984375 255.98646545410156 405.47088623046875 252.11312866210938 C 408.2708740234375 248.2397918701172 411.04754638671875 243.26979064941406 413.8008728027344 237.203125 C 416.55419921875 231.13645935058594 418.23419189453125 228.10311889648438 418.8408508300781 228.10311889648438 C 419.4475402832031 228.10311889648438 419.7508544921875 228.4764404296875 419.7508544921875 229.22311401367188 C 419.7508544921875 231.83644104003906 418.39752197265625 235.98977661132812 415.6908874511719 241.68312072753906 C 408.31756591796875 257.3631286621094 402.11090087890625 265.203125 397.0708923339844 265.203125 M 379.9908447265625 220.4031524658203 C 377.3775329589844 220.4031524658203 374.6008605957031 222.33982849121094 371.6608581542969 226.21316528320312 C 368.7208557128906 230.0865020751953 367.2508544921875 234.63650512695312 367.2508850097656 239.8631591796875 C 367.2508850097656 245.08982849121094 368.0208740234375 249.38316345214844 369.5608825683594 252.7431640625 C 371.10089111328125 256.1031494140625 373.1308898925781 257.7831726074219 375.65087890625 257.78314208984375 C 378.73089599609375 257.78314208984375 383.2575378417969 250.08314514160156 389.2308654785156 234.6831512451172 C 389.3241882324219 233.9364776611328 389.44085693359375 232.65313720703125 389.58087158203125 230.83314514160156 C 389.7208557128906 229.0131378173828 389.8375244140625 227.636474609375 389.93084716796875 226.70314025878906 C 389.0908508300781 225.20980834960938 387.620849609375 223.78648376464844 385.5208435058594 222.4331512451172 C 383.4208679199219 221.07981872558594 381.5775146484375 220.4031524658203 379.9908447265625 220.4031524658203 ZM 420.80157470703125 265.08392333984375 C 418.748291015625 265.0981140136719 416.8565673828125 264.8544921875 415.12640380859375 264.35308837890625 C 413.396240234375 263.8516845703125 412.3428649902344 263.36895751953125 411.9663391113281 262.9048767089844 C 411.0252990722656 261.7913513183594 410.5185241699219 255.9846954345703 410.4460144042969 245.48495483398438 C 410.37353515625 234.98519897460938 411.4417419433594 220.7208251953125 413.6506652832031 202.69180297851562 C 415.5081481933594 187.838623046875 420.0301513671875 180.38723754882812 427.2166442871094 180.33761596679688 C 428.8966064453125 180.32601928710938 430.1162109375 181.2276153564453 430.87542724609375 183.04241943359375 C 431.6346435546875 184.8572235107422 432.0200500488281 186.60459899902344 432.0316467285156 188.28456115722656 C 432.1153869628906 200.4176025390625 428.5225830078125 214.02273559570312 421.253173828125 229.09994506835938 C 421.0266418457031 236.84835815429688 420.9332275390625 243.59249877929688 420.97283935546875 249.33236694335938 C 421.0124816894531 255.07223510742188 421.54559326171875 257.9386291503906 422.5722351074219 257.9315185546875 C 424.1582336425781 257.8272399902344 426.33782958984375 255.8288116455078 429.11102294921875 251.93624877929688 C 431.88421630859375 248.04367065429688 434.6264953613281 243.0546112060547 437.337890625 236.96908569335938 C 440.04925537109375 230.88356018066406 441.7082824707031 227.8386993408203 442.31494140625 227.83450317382812 C 442.92156982421875 227.830322265625 443.22747802734375 228.20155334472656 443.2326354980469 228.9481964111328 C 443.25067138671875 231.56146240234375 441.9260559082031 235.7240447998047 439.2587585449219 241.43592834472656 C 431.9938659667969 257.1664733886719 425.8414611816406 265.04913330078125 420.80157470703125 265.08392333984375 M 428.5404052734375 189.56869506835938 C 428.5198059082031 186.5821075439453 428.13616943359375 185.0913848876953 427.3895263671875 185.09654235839844 C 424.5895690917969 185.11585998535156 422.61651611328125 196.749755859375 421.4703369140625 219.99822998046875 C 426.2352600097656 207.17835998535156 428.59197998046875 197.03518676757812 428.5404052734375 189.56869506835938 ZM 443.8280029296875 208.0743865966797 L 445.3237609863281 214.63328552246094 C 445.34686279296875 216.21978759765625 444.80596923828125 217.5344696044922 443.7010498046875 218.5773468017578 C 442.59613037109375 219.62022399902344 441.2970886230469 220.15255737304688 439.8039245605469 220.17431640625 C 438.3107604980469 220.1960906982422 437.2040100097656 219.51214599609375 436.4836730957031 218.12249755859375 C 435.7633361816406 216.73284912109375 435.39093017578125 215.19810485839844 435.366455078125 213.51828002929688 C 435.2929992675781 208.47882080078125 437.3964538574219 203.89767456054688 441.67681884765625 199.7748565673828 C 445.9571838378906 195.65203857421875 450.85040283203125 193.5504913330078 456.3564758300781 193.47024536132812 L 457.1963806152344 193.45799255371094 C 458.95947265625 186.3382110595703 461.7074890136719 182.75111389160156 465.4404296875 182.6967010498047 C 466.560302734375 182.6803741455078 467.1419982910156 184.16539001464844 467.185546875 187.1517333984375 C 467.1936950683594 187.711669921875 467.08636474609375 189.95347595214844 466.863525390625 193.87713623046875 C 468.2660827636719 194.0433807373047 469.90264892578125 194.2528839111328 471.773193359375 194.50564575195312 C 476.1689453125 195.09498596191406 479.8366394042969 195.36822509765625 482.7763366699219 195.32537841796875 C 485.71600341796875 195.28253173828125 488.6952209472656 194.74905395507812 491.7139587402344 193.72494506835938 C 494.732666015625 192.70083618164062 496.75531005859375 192.18130493164062 497.7818908691406 192.1663360595703 C 500.3949279785156 192.1282501220703 501.7208557128906 193.43907165527344 501.7596130371094 196.09878540039062 C 501.7983703613281 198.7584991455078 500.4277648925781 200.7853546142578 497.6477966308594 202.17935180664062 C 494.8678283691406 203.57334899902344 490.818115234375 204.3091278076172 485.4986877441406 204.38665771484375 C 480.1792297363281 204.4641876220703 473.6755676269531 203.3455352783203 465.9877014160156 201.03067016601562 C 464.961669921875 207.48631286621094 464.379150390625 212.34864807128906 464.2401123046875 215.61769104003906 C 464.10107421875 218.88673400878906 463.98516845703125 223.7422637939453 463.8923645019531 230.18429565429688 C 467.8092346191406 229.94052124023438 473.22064208984375 229.76829528808594 480.1265563964844 229.66763305664062 C 481.33978271484375 229.64996337890625 482.3964538574219 230.1012725830078 483.296630859375 231.02157592773438 C 484.1968078613281 231.94189453125 484.6543884277344 232.9153289794922 484.6693420410156 233.94187927246094 C 484.6842956542969 234.96844482421875 484.36993408203125 235.8131103515625 483.7261657714844 236.4759063720703 C 483.0824279785156 237.13868713378906 482.38726806640625 237.47552490234375 481.64068603515625 237.4864044189453 L 463.8482971191406 236.76564025878906 C 463.6083068847656 245.91677856445312 463.3954772949219 252.12721252441406 463.20977783203125 255.3969268798828 C 463.0240783691406 258.6666564941406 462.15838623046875 261.7129211425781 460.6126708984375 264.5357666015625 C 459.0669860839844 267.35858154296875 457.2209167480469 268.78564453125 455.0744934082031 268.8169250488281 C 453.8612976074219 268.8345947265625 452.5222473144531 268.22406005859375 451.057373046875 266.98529052734375 C 449.5924987792969 265.7464904785156 448.8518981933594 264.5671691894531 448.8355712890625 263.4472961425781 C 448.8192443847656 262.327392578125 448.969970703125 261.4617919921875 449.28778076171875 260.85040283203125 C 449.6055603027344 260.2390441894531 449.9700012207031 259.62701416015625 450.3811340332031 259.0142822265625 C 450.792236328125 258.40155029296875 451.0884094238281 257.9071960449219 451.26959228515625 257.53118896484375 C 452.3541259765625 255.08843994140625 453.2834167480469 248.40086364746094 454.0574951171875 237.46841430664062 L 448.6082763671875 238.2479248046875 C 447.8616943359375 238.25880432128906 447.2513427734375 238.01100158691406 446.7772521972656 237.50453186035156 C 446.3031311035156 236.998046875 446.0610046386719 236.3948516845703 446.05078125 235.69491577148438 C 446.04058837890625 234.9949951171875 446.17138671875 234.36302185058594 446.4432067871094 233.7989959716797 C 446.71502685546875 233.2349853515625 447.26849365234375 232.78353881835938 448.1036376953125 232.4446563720703 C 448.93878173828125 232.1057891845703 449.5423278808594 231.886962890625 449.9142761230469 231.78819274902344 C 451.4020080566406 231.3931427001953 452.8924560546875 231.18472290039062 454.3856201171875 231.1629638671875 C 454.5396423339844 228.9204864501953 454.72552490234375 224.0639190673828 454.9433288574219 216.59329223632812 C 455.1611633300781 209.12265014648438 455.5660705566406 203.28280639648438 456.15814208984375 199.07373046875 C 455.5968322753906 198.98855590820312 454.7562255859375 198.9541473388672 453.6363525390625 198.970458984375 C 447.0104064941406 199.06704711914062 443.7409362792969 202.1016845703125 443.8280029296875 208.0743865966797 ZM 495.432861328125 194.8949737548828 C 495.3943786621094 193.2154083251953 496.2476501464844 191.74880981445312 497.99273681640625 190.4951629638672 C 499.73779296875 189.24151611328125 501.3101501464844 188.59864807128906 502.70977783203125 188.5665740966797 C 505.2290954589844 188.50881958007812 506.52191162109375 189.92623901367188 506.5882263183594 192.81881713867188 C 506.6545104980469 195.71139526367188 505.9652404785156 198.22451782226562 504.52044677734375 200.35818481445312 C 503.07562255859375 202.49185180664062 501.0002136230469 203.58969116210938 498.29425048828125 203.65170288085938 C 496.5213928222656 203.6923370361328 495.5675964355469 200.77342224121094 495.432861328125 194.8949737548828 M 501.07647705078125 263.94378662109375 C 497.43743896484375 264.0271911621094 494.667724609375 263.34381103515625 492.767333984375 261.8936462402344 C 492.0992126464844 261.25543212890625 491.7191467285156 258.9302062988281 491.627197265625 254.91793823242188 C 491.5352478027344 250.90565490722656 491.68505859375 244.20379638671875 492.0766296386719 234.81234741210938 C 492.46820068359375 225.42091369628906 492.8887023925781 220.34661865234375 493.338134765625 219.58944702148438 C 493.78759765625 218.83229064941406 495.2017822265625 217.39950561523438 497.5807800292969 215.29110717773438 C 499.9597473144531 213.18270874023438 501.82574462890625 212.11300659179688 503.1787109375 212.08200073242188 C 504.53167724609375 212.05099487304688 505.2488098144531 213.808349609375 505.330078125 217.35409545898438 C 505.3514709472656 218.28717041015625 505.1365661621094 220.11257934570312 504.6853942871094 222.83029174804688 C 504.2342224121094 225.5480194091797 503.6959533691406 227.5208740234375 503.0705871582031 228.7488555908203 C 501.9281311035156 231.85585021972656 501.5066223144531 239.9409637451172 501.8060302734375 253.0041961669922 C 501.86376953125 255.52352905273438 502.17254638671875 256.77679443359375 502.732421875 256.7639465332031 C 504.3165283203125 256.63427734375 506.4638366699219 254.60122680664062 509.1743469238281 250.6647491455078 C 511.8848571777344 246.728271484375 514.5469360351562 241.69595336914062 517.1605224609375 235.5677947998047 C 519.7741088867188 229.43963623046875 521.3841552734375 226.3686065673828 521.9906616210938 226.35470581054688 C 522.59716796875 226.34080505371094 522.9089965820312 226.7070770263672 522.9260864257812 227.45355224609375 C 522.9859619140625 230.0662078857422 521.7282104492188 234.24945068359375 519.1526489257812 240.00331115722656 C 512.1405639648438 255.84814453125 506.11517333984375 263.82830810546875 501.07647705078125 263.94378662109375 ZM 527.0003051757812 226.0377655029297 L 534.6718139648438 224.96836853027344 C 535.4181518554688 224.9460906982422 536.0836791992188 225.34642028808594 536.6685180664062 226.16932678222656 C 537.2533569335938 226.99224853515625 537.5596923828125 227.8701629638672 537.5875244140625 228.80308532714844 C 537.6153564453125 229.73599243164062 537.4068603515625 232.91696166992188 536.9619750976562 238.3459930419922 C 536.5171508789062 243.7750244140625 536.3413696289062 248.0521697998047 536.4346923828125 251.1774444580078 C 536.5279541015625 254.30271911621094 536.8544921875 255.85699462890625 537.4142456054688 255.8402862548828 C 538.9974365234375 255.69964599609375 541.130615234375 253.65174865722656 543.8137817382812 249.69659423828125 C 546.4969482421875 245.74142456054688 549.1240844726562 240.69078063964844 551.6951293945312 234.54466247558594 C 554.2662353515625 228.39852905273438 555.8549194335938 225.31642150878906 556.4613647460938 225.29830932617188 C 557.0677490234375 225.28021240234375 557.382080078125 225.64431762695312 557.4043579101562 226.39065551757812 C 557.4823608398438 229.00282287597656 556.2535400390625 233.1947021484375 553.7179565429688 238.9662628173828 C 546.8157958984375 254.8592987060547 540.8458862304688 262.8810119628906 535.80810546875 263.0314025878906 C 532.1697387695312 263.1400451660156 529.3953247070312 262.4758605957031 527.4849243164062 261.0389099121094 C 526.8124389648438 260.4053649902344 526.36474609375 256.3569030761719 526.1419067382812 248.89356994628906 C 525.9191284179688 241.4302215576172 526.5213012695312 235.0160675048828 527.9485473632812 229.6510772705078 C 522.53759765625 229.8126220703125 518.707763671875 228.19952392578125 516.458984375 224.81178283691406 C 515.2865600585938 223.07266235351562 514.6669311523438 221.08360290527344 514.60009765625 218.8446044921875 C 514.5332641601562 216.6055908203125 514.9412231445312 214.63253784179688 515.8240356445312 212.92544555664062 C 516.706787109375 211.2183380126953 518.0111694335938 210.33901977539062 519.737060546875 210.28749084472656 C 521.4629516601562 210.23597717285156 523.0760498046875 211.0982208251953 524.576416015625 212.87423706054688 C 526.0767211914062 214.65025329589844 526.8602905273438 216.65777587890625 526.9271850585938 218.8967742919922 C 526.9940185546875 221.13577270507812 526.4077758789062 223.39427185058594 525.1685791015625 225.67227172851562 C 525.5501098632812 225.94100952148438 526.16064453125 226.06283569335938 527.0003051757812 226.0377655029297 ZM 568.30859375 261.90216064453125 C 563.086181640625 262.1132507324219 558.8561401367188 260.29931640625 555.618408203125 256.4602966308594 C 552.3806762695312 252.6212615966797 550.6600341796875 248.18380737304688 550.4564819335938 243.14791870117188 C 550.0455932617188 232.98289489746094 551.8794555664062 225.2024688720703 555.9581909179688 219.806640625 C 560.0369262695312 214.41082763671875 565.4801635742188 211.5753173828125 572.2879028320312 211.3001251220703 C 575.4586791992188 211.1719512939453 578.104736328125 211.92901611328125 580.2261352539062 213.5713348388672 C 582.3475341796875 215.21365356445312 583.4685668945312 217.5269317626953 583.5891723632812 220.51116943359375 C 583.8153686523438 226.10659790039062 581.6500854492188 230.88795471191406 577.09326171875 234.85525512695312 C 572.5364379882812 238.82254028320312 566.8579711914062 241.03704833984375 560.0577392578125 241.49876403808594 C 560.5777587890625 245.12071228027344 561.940673828125 248.21820068359375 564.1463623046875 250.79119873046875 C 566.3521118164062 253.3642120361328 568.8538208007812 254.5941619873047 571.6515502929688 254.48106384277344 C 574.4492797851562 254.3679656982422 576.9407958984375 253.61338806152344 579.126220703125 252.21730041503906 C 581.3115844726562 250.82122802734375 583.287841796875 248.87315368652344 585.0549926757812 246.37306213378906 C 588.7644653320312 241.08558654785156 591.8861083984375 235.1212921142578 594.419921875 228.48019409179688 C 595.0980834960938 226.7714080810547 595.6319580078125 225.53550720214844 596.021484375 224.77249145507812 C 596.4109497070312 224.00946044921875 596.8621826171875 223.61758422851562 597.3750610351562 223.5968475341797 C 597.8880004882812 223.57611083984375 598.1595458984375 223.93878173828125 598.189697265625 224.68482971191406 C 598.378173828125 229.34768676757812 595.8165893554688 236.4569549560547 590.5048828125 246.01263427734375 C 584.7532958984375 256.2399597167969 577.3544921875 261.5364685058594 568.30859375 261.90216064453125 M 559.9219970703125 238.14151000976562 C 565.386474609375 236.98651123046875 569.3482055664062 235.05157470703125 571.8072509765625 232.33670043945312 C 574.2662353515625 229.62184143066406 575.4109497070312 226.16610717773438 575.2412719726562 221.96954345703125 C 575.0716552734375 217.77296447753906 573.6345825195312 215.72933959960938 570.9301147460938 215.8386688232422 C 567.6661376953125 215.97061157226562 565.0064697265625 218.3433074951172 562.9511108398438 222.95675659179688 C 560.8958129882812 227.57022094726562 559.8861083984375 232.6317901611328 559.9219970703125 238.14151000976562 Z" transform="matrix(1.6025662422180176, 0, 0, 1.6025662422180176, -237.35598754882812, -188.24017333984375)" style="fill: rgb(0, 0, 0); white-space: pre; color: rgb(51, 51, 51);"/></svg>